<?xml version="1.0" encoding="UTF-8" standalone="no"?>
<!DOCTYPE svg PUBLIC "-//W3C//DTD SVG 1.1//EN" "http://www.w3.org/Graphics/SVG/1.1/DTD/svg11.dtd">
<svg width="100%" height="100%" viewBox="0 0 3000 3000" version="1.1" xmlns="http://www.w3.org/2000/svg" xmlns:xlink="http://www.w3.org/1999/xlink" xml:space="preserve" xmlns:serif="http://www.serif.com/" style="fill-rule:evenodd;clip-rule:evenodd;stroke-linecap:round;stroke-linejoin:round;stroke-miterlimit:1.5;">
    <g transform="matrix(1,0,0,1,-3076.2,-3.10184)">
        <g transform="matrix(1.002,0,0,0.958375,3076.2,45.5571)">
            <rect id="Artboard1" x="0" y="-44.299" width="2994" height="3130.3" style="fill:none;"/>
            <g id="Artboard11" serif:id="Artboard1">
                <g transform="matrix(1.65023,0,0,1.65023,-968.115,-401.014)">
                    <g id="Truck" transform="matrix(0.998,0,0,1.04343,0,1.92405)">
                        <g transform="matrix(1,0,0,1,0,-44.2992)">
                            <path d="M1349.54,939.219L1481.17,939.067" style="fill:none;stroke:rgb(32,107,196);stroke-width:2.52px;"/>
                        </g>
                        <g transform="matrix(1,0,0,1,0,-44.2992)">
                            <path d="M1349.54,956.484L1452.28,955.982" style="fill:none;stroke:rgb(32,107,196);stroke-width:2.52px;"/>
                        </g>
                        <g transform="matrix(1,0,0,1,0,-44.2992)">
                            <path d="M1349.54,973.718L1485.43,974.142L1485.4,1082.53" style="fill:none;stroke:rgb(32,107,196);stroke-width:2.52px;"/>
                        </g>
                        <g transform="matrix(1,0,0,1,0,-44.2992)">
                            <path d="M1499.78,920.126L1499.91,1058.75" style="fill:none;stroke:rgb(32,107,196);stroke-width:2.52px;"/>
                        </g>
                        <g transform="matrix(1,0,0,1,0,-44.2992)">
                            <path d="M1444.95,1002.92L1445.09,1058.75L1412.98,1082.53L1366.8,1082.53" style="fill:none;stroke:rgb(32,107,196);stroke-width:2.52px;"/>
                        </g>
                        <g transform="matrix(1,0,0,1,0,-44.2992)">
                            <path d="M1374.28,1039.47L1420.94,1039.53L1421.71,973.718" style="fill:none;stroke:rgb(32,107,196);stroke-width:2.52px;"/>
                        </g>
                        <g transform="matrix(1,0,0,1,0,-44.2992)">
                            <path d="M1569.57,998.012L1671.46,997.165L1671.79,967.202L1591.06,967.088L1575.63,949.602L1550.16,949.841" style="fill:none;stroke:rgb(32,107,196);stroke-width:2.52px;"/>
                        </g>
                        <g transform="matrix(1,0,0,1,0,-44.2992)">
                            <path d="M1685.84,1101.9L1685.84,1035.1L1672.24,1011.39L1596.33,1011.41L1576.68,1038.31L1541.86,1039.38L1525.61,1020.75" style="fill:none;stroke:rgb(32,107,196);stroke-width:2.52px;"/>
                        </g>
                        <g transform="matrix(1,0,0,1,0,-44.2992)">
                            <path d="M1658.57,1023.55L1602.26,1023.44L1580.98,1056.65L1536.18,1056.65L1525.61,1045.06L1501.02,1044.17" style="fill:none;stroke:rgb(32,107,196);stroke-width:2.52px;"/>
                        </g>
                        <g transform="matrix(0.82094,0,0,0.766163,265.283,176.756)">
                            <ellipse cx="1485.4" cy="937.563" rx="7.386" ry="7.596" style="fill:none;stroke:rgb(32,107,196);stroke-width:3.18px;"/>
                        </g>
                        <g transform="matrix(0.82094,0,0,0.766163,166.411,222.228)">
                            <ellipse cx="1485.4" cy="937.563" rx="7.386" ry="7.596" style="fill:none;stroke:rgb(32,107,196);stroke-width:3.18px;"/>
                        </g>
                        <g transform="matrix(0.82094,0,0,0.766163,265.283,176.756)">
                            <ellipse cx="1485.4" cy="937.563" rx="7.386" ry="7.596" style="fill:none;stroke:rgb(32,107,196);stroke-width:3.18px;"/>
                        </g>
                        <g transform="matrix(0.82094,0,0,0.766163,186.969,222.228)">
                            <ellipse cx="1485.4" cy="937.563" rx="7.386" ry="7.596" style="fill:none;stroke:rgb(32,107,196);stroke-width:3.18px;"/>
                        </g>
                        <g transform="matrix(0.82094,0,0,0.766163,233.439,193.458)">
                            <ellipse cx="1485.4" cy="937.563" rx="7.386" ry="7.596" style="fill:none;stroke:rgb(32,107,196);stroke-width:3.18px;"/>
                        </g>
                        <g transform="matrix(0.82094,0,0,0.766163,167.12,263.654)">
                            <ellipse cx="1485.4" cy="937.563" rx="7.386" ry="7.596" style="fill:none;stroke:rgb(32,107,196);stroke-width:3.18px;"/>
                        </g>
                        <g transform="matrix(0.82094,0,0,0.766163,187.092,263.94)">
                            <ellipse cx="1485.4" cy="937.563" rx="7.386" ry="7.596" style="fill:none;stroke:rgb(32,107,196);stroke-width:3.18px;"/>
                        </g>
                        <g transform="matrix(0.82094,0,0,0.766163,151.879,277.932)">
                            <ellipse cx="1485.4" cy="937.563" rx="7.386" ry="7.596" style="fill:none;stroke:rgb(32,107,196);stroke-width:3.18px;"/>
                        </g>
                        <g transform="matrix(0.82094,0,0,0.766163,146.108,320.099)">
                            <ellipse cx="1485.4" cy="937.563" rx="7.386" ry="7.596" style="fill:none;stroke:rgb(32,107,196);stroke-width:3.18px;"/>
                        </g>
                        <g transform="matrix(0.82094,0,0,0.766163,245.094,307.114)">
                            <ellipse cx="1485.4" cy="937.563" rx="7.386" ry="7.596" style="fill:none;stroke:rgb(32,107,196);stroke-width:3.18px;"/>
                        </g>
                        <g transform="matrix(0.82094,0,0,0.766163,244.581,237.642)">
                            <ellipse cx="1485.4" cy="937.563" rx="7.386" ry="7.596" style="fill:none;stroke:rgb(32,107,196);stroke-width:3.18px;"/>
                        </g>
                        <g transform="matrix(0.82094,0,0,0.766163,225.289,237.151)">
                            <ellipse cx="1485.4" cy="937.563" rx="7.386" ry="7.596" style="fill:none;stroke:rgb(32,107,196);stroke-width:3.18px;"/>
                        </g>
                        <g transform="matrix(0.82094,0,0,0.766163,295.215,175.406)">
                            <ellipse cx="1485.4" cy="937.563" rx="7.386" ry="7.596" style="fill:none;stroke:rgb(32,107,196);stroke-width:3.18px;"/>
                        </g>
                        <g transform="matrix(0.82094,0,0,0.766163,295.557,216.686)">
                            <ellipse cx="1485.4" cy="937.563" rx="7.386" ry="7.596" style="fill:none;stroke:rgb(32,107,196);stroke-width:3.18px;"/>
                        </g>
                        <g transform="matrix(0.82094,0,0,0.766163,311.793,196.148)">
                            <ellipse cx="1485.4" cy="937.563" rx="7.386" ry="7.596" style="fill:none;stroke:rgb(32,107,196);stroke-width:3.18px;"/>
                        </g>
                        <g transform="matrix(0.82094,0,0,0.766163,311.688,237.337)">
                            <ellipse cx="1485.4" cy="937.563" rx="7.386" ry="7.596" style="fill:none;stroke:rgb(32,107,196);stroke-width:3.18px;"/>
                        </g>
                        <g transform="matrix(0.82094,0,0,0.766163,329.619,206.176)">
                            <ellipse cx="1485.4" cy="937.563" rx="7.386" ry="7.596" style="fill:none;stroke:rgb(32,107,196);stroke-width:3.18px;"/>
                        </g>
                        <g transform="matrix(0.82094,0,0,0.766163,330.356,258.647)">
                            <ellipse cx="1485.4" cy="937.563" rx="7.386" ry="7.596" style="fill:none;stroke:rgb(32,107,196);stroke-width:3.18px;"/>
                        </g>
                        <g transform="matrix(0.82094,0,0,0.766163,306.168,257.578)">
                            <ellipse cx="1485.4" cy="937.563" rx="7.386" ry="7.596" style="fill:none;stroke:rgb(32,107,196);stroke-width:3.18px;"/>
                        </g>
                        <g transform="matrix(0.82094,0,0,0.766163,345.65,234.578)">
                            <ellipse cx="1485.4" cy="937.563" rx="7.386" ry="7.596" style="fill:none;stroke:rgb(32,107,196);stroke-width:3.18px;"/>
                        </g>
                        <g transform="matrix(0.82094,0,0,0.766163,331.097,186.711)">
                            <ellipse cx="1485.4" cy="937.563" rx="7.386" ry="7.596" style="fill:none;stroke:rgb(32,107,196);stroke-width:3.18px;"/>
                        </g>
                        <g transform="matrix(0.82094,0,0,0.766163,393.963,183.027)">
                            <ellipse cx="1485.4" cy="937.563" rx="7.386" ry="7.596" style="fill:none;stroke:rgb(32,107,196);stroke-width:3.18px;"/>
                        </g>
                        <g transform="matrix(0.82094,0,0,0.766163,426.181,183.385)">
                            <ellipse cx="1485.4" cy="937.563" rx="7.386" ry="7.596" style="fill:none;stroke:rgb(32,107,196);stroke-width:3.18px;"/>
                        </g>
                        <g transform="matrix(0.82094,0,0,0.766163,426.313,219.255)">
                            <ellipse cx="1485.4" cy="937.563" rx="7.386" ry="7.596" style="fill:none;stroke:rgb(32,107,196);stroke-width:3.18px;"/>
                        </g>
                        <g transform="matrix(0.82094,0,0,0.766163,394.022,219.108)">
                            <ellipse cx="1485.4" cy="937.563" rx="7.386" ry="7.596" style="fill:none;stroke:rgb(32,107,196);stroke-width:3.18px;"/>
                        </g>
                        <g transform="matrix(0.82094,0,0,0.766163,280.899,295.758)">
                            <ellipse cx="1485.4" cy="937.563" rx="7.386" ry="7.596" style="fill:none;stroke:rgb(32,107,196);stroke-width:3.18px;"/>
                        </g>
                        <g transform="matrix(0.82094,0,0,0.766163,265.749,321.843)">
                            <ellipse cx="1485.4" cy="937.563" rx="7.386" ry="7.596" style="fill:none;stroke:rgb(32,107,196);stroke-width:3.18px;"/>
                        </g>
                        <g transform="matrix(0.82094,0,0,0.766163,310.531,319.707)">
                            <ellipse cx="1485.4" cy="937.563" rx="7.386" ry="7.596" style="fill:none;stroke:rgb(32,107,196);stroke-width:3.18px;"/>
                        </g>
                        <g transform="matrix(0.82094,0,0,0.766163,352.493,319.931)">
                            <ellipse cx="1485.4" cy="937.563" rx="7.386" ry="7.596" style="fill:none;stroke:rgb(32,107,196);stroke-width:3.18px;"/>
                        </g>
                        <g transform="matrix(1,0,0,1,0,-44.2992)">
                            <path d="M1385.84,984.853L1386.55,1026.28" style="fill:none;stroke:rgb(32,107,196);stroke-width:2.52px;"/>
                        </g>
                        <g transform="matrix(1,0,0,1,0,-44.2992)">
                            <path d="M1406.35,984.853L1406.26,1026.28" style="fill:none;stroke:rgb(32,107,196);stroke-width:2.52px;"/>
                        </g>
                        <g transform="matrix(1,0,0,1,0,-44.2992)">
                            <path d="M1463.85,1000.6L1464.01,1071.17" style="fill:none;stroke:rgb(32,107,196);stroke-width:2.52px;"/>
                        </g>
                        <g transform="matrix(1,0,0,1,0,-44.2992)">
                            <path d="M1514.57,936.73L1515.38,978.048" style="fill:none;stroke:rgb(32,107,196);stroke-width:2.52px;"/>
                        </g>
                        <g transform="matrix(1,0,0,1,0,-44.2992)">
                            <path d="M1548.99,970.381L1549.78,1021.27" style="fill:none;stroke:rgb(32,107,196);stroke-width:2.52px;"/>
                        </g>
                        <g transform="matrix(1,0,0,1,0,-44.2992)">
                            <path d="M1530.95,957.389L1531.22,1000.6" style="fill:none;stroke:rgb(32,107,196);stroke-width:2.52px;"/>
                        </g>
                        <g transform="matrix(1,0,0,1,0,-44.2992)">
                            <path d="M1531.22,1082.27L1572.15,1082.07" style="fill:none;stroke:rgb(32,107,196);stroke-width:2.52px;"/>
                        </g>
                        <g transform="matrix(1,0,0,1,0,-44.2992)">
                            <path d="M1356.23,920.121C1354.45,920.12 1352.75,920.824 1351.49,922.08C1350.24,923.335 1349.54,925.038 1349.54,926.813C1349.6,955.67 1349.85,1069.18 1349.91,1097.32C1349.92,1100.83 1352.76,1103.68 1356.27,1103.7C1374.4,1103.8 1425.19,1104.07 1425.19,1104.07C1425.19,1104.07 1409.33,1144.25 1448.83,1144.52C1487.88,1144.78 1474.98,1104.16 1468.16,1104.04C1461.35,1103.92 1711.85,1103.56 1711.85,1103.56C1711.85,1103.56 1700.29,1139.88 1741.66,1144.33C1780.44,1141.83 1768.91,1104.76 1771.94,1103.91C1780.5,1103.64 1812.22,1103.65 1826.11,1103.66C1827.84,1103.66 1829.51,1102.97 1830.73,1101.73C1831.95,1100.5 1832.63,1098.83 1832.61,1097.09C1832.49,1085.55 1832.24,1061.87 1832.13,1050.99C1832.09,1047.29 1830.9,1043.69 1828.71,1040.7C1819.53,1028.13 1793.87,993.018 1781.69,976.34C1777.54,970.669 1770.96,967.295 1763.93,967.244C1737.25,967.051 1671.99,966.58 1671.99,966.58C1671.99,966.58 1670.43,936.62 1669.82,924.986C1669.68,922.44 1667.58,920.443 1665.03,920.44C1629.65,920.404 1398.68,920.165 1356.23,920.121Z" style="fill:none;stroke:rgb(32,107,196);stroke-width:8.84px;"/>
                        </g>
                    </g>
                    <g id="Logo" transform="matrix(0.576215,0,0,0.592508,631.382,250.361)">
                        <path d="M64.69,1101.99L800.442,1102.12L1061.79,1359.62L1216.09,1359.37L1215.16,1315.78L1078.38,1315.05L822.565,1053.68L293.082,1049.56C744.719,-16.091 2227.33,-35.797 2702.57,1037.46C2762.03,1177.37 2792.5,1323.47 2800.39,1477.42L2993.39,1477.51C2951.98,655.277 2296.22,51.01 1497,45.5C752.12,49.203 250.541,528.385 64.69,1101.99Z" style="fill:rgb(32,107,196);stroke:black;stroke-width:1.06px;"/>
                        <g transform="matrix(0.999798,0,0,1.06526,0,-102.472)">
                            <rect x="0" y="1524.55" width="2994" height="45.624" style="fill:rgb(32,107,196);stroke:black;stroke-width:1.02px;"/>
                        </g>
                        <path d="M450.56,1894.61L41.879,1894.42C159.142,2431.29 684.249,3043.19 1497,3040.5C2469.78,3037.28 2987.34,2210.74 2993.39,1608.61L2800.46,1608.61C2733.33,2405.6 2108.6,2850.7 1497,2848.01C954.383,2845.64 444.996,2508.07 253.743,1936.37L491.044,1936.8L450.56,1894.61Z" style="fill:rgb(32,107,196);stroke:black;stroke-width:1.06px;"/>
                        <path d="M682.853,1020.81L992.311,711.885L1619.67,709.05L1619.92,754.893L1011.24,754.915L744.179,1021.05L682.853,1020.81Z" style="fill:rgb(32,107,196);stroke:black;stroke-width:1.06px;"/>
                        <path d="M563.487,1138.51L626.755,1138.75L317.025,1446.13L0,1445.73L0,1402.15L298.638,1402L563.487,1138.51Z" style="fill:rgb(32,107,196);stroke:black;stroke-width:1.06px;"/>
                        <path d="M0,1689.93L0,1646.36L318.564,1646.5L1007.2,2329.2L2164.26,2331.34L2165.34,2373.69L988.152,2375.03L300.105,1690.48L0,1689.93Z" style="fill:rgb(32,107,196);stroke:black;stroke-width:1.06px;"/>
                        <path d="M619.645,1892.69L666.437,1939.44L1109.28,1936.37L1273.1,1772.54L1895.71,1777.36L1895.56,1729.99L1256.04,1731.51L1091.48,1895.05L619.645,1892.69Z" style="fill:rgb(32,107,196);stroke:black;stroke-width:1.06px;"/>
                        <g transform="matrix(1,0,0,1,0,-3)">
                            <ellipse cx="1681.35" cy="737.496" rx="150.156" ry="146.789" style="fill:rgb(32,107,196);"/>
                        </g>
                        <g transform="matrix(1,0,0,1,301.312,1015.8)">
                            <ellipse cx="1681.35" cy="737.496" rx="150.156" ry="146.789" style="fill:rgb(32,107,196);"/>
                        </g>
                        <g transform="matrix(1,0,0,1,542.663,1615.07)">
                            <ellipse cx="1681.35" cy="737.496" rx="150.156" ry="146.789" style="fill:rgb(32,107,196);"/>
                        </g>
                    </g>
                    <g transform="matrix(0.998,0,0,1.04343,0,-44.2992)">
                        <path d="M2004.35,1078.98C2004.35,1059.98 2019.59,1043.42 2042.03,1043.71C2064.19,1043.99 2080.3,1059.04 2080.3,1078.04C2080.3,1089.67 2077.23,1095.84 2067.03,1108.64L2042.42,1144.33L2017.35,1108.83C2009.03,1097.19 2004.35,1090.62 2004.35,1078.98ZM2042.2,1068.07C2033.08,1067.96 2025.9,1074.36 2025.9,1083.67C2025.9,1092.97 2033.3,1099.65 2042.42,1099.65C2051.54,1099.65 2058.02,1092.33 2057.33,1083.05C2056.66,1074.03 2050.45,1068.17 2042.2,1068.07Z" style="fill:rgb(32,107,196);"/>
                    </g>
                </g>
            </g>
        </g>
    </g>
</svg>
