<?xml version="1.0" encoding="UTF-8" standalone="no"?>
<!DOCTYPE svg PUBLIC "-//W3C//DTD SVG 1.1//EN" "http://www.w3.org/Graphics/SVG/1.1/DTD/svg11.dtd">
<svg width="100%" height="100%" viewBox="0 0 2994 3004" version="1.1" xmlns="http://www.w3.org/2000/svg" xmlns:xlink="http://www.w3.org/1999/xlink" xml:space="preserve" xmlns:serif="http://www.serif.com/" style="fill-rule:evenodd;clip-rule:evenodd;stroke-linecap:round;stroke-linejoin:round;stroke-miterlimit:1.5;">
    <g transform="matrix(1,0,0,0.959366,0,42.4992)">
        <rect id="Artboard1" x="0" y="-44.299" width="2994" height="3130.3" style="fill:none;"/>
        <g id="Artboard11" serif:id="Artboard1">
            <g id="Truck" transform="matrix(1,0,0,1.04236,0,1.87631)">
                <g transform="matrix(1,0,0,1,0,-44.2992)">
                    <path d="M1349.54,939.219L1481.17,939.067" style="fill:none;stroke:white;stroke-width:4.17px;"/>
                </g>
                <g transform="matrix(1,0,0,1,0,-44.2992)">
                    <path d="M1349.54,956.484L1452.28,955.982" style="fill:none;stroke:white;stroke-width:4.17px;"/>
                </g>
                <g transform="matrix(1,0,0,1,0,-44.2992)">
                    <path d="M1349.54,973.718L1485.43,974.142L1485.4,1082.53" style="fill:none;stroke:white;stroke-width:4.17px;"/>
                </g>
                <g transform="matrix(1,0,0,1,0,-44.2992)">
                    <path d="M1499.78,920.126L1499.91,1058.75" style="fill:none;stroke:white;stroke-width:4.17px;"/>
                </g>
                <g transform="matrix(1,0,0,1,0,-44.2992)">
                    <path d="M1444.95,1002.92L1445.09,1058.75L1412.98,1082.53L1366.8,1082.53" style="fill:none;stroke:white;stroke-width:4.17px;"/>
                </g>
                <g transform="matrix(1,0,0,1,0,-44.2992)">
                    <path d="M1374.28,1039.47L1420.94,1039.53L1421.71,973.718" style="fill:none;stroke:white;stroke-width:4.17px;"/>
                </g>
                <g transform="matrix(1,0,0,1,0,-44.2992)">
                    <path d="M1569.57,998.012L1671.46,997.165L1671.79,967.202L1591.06,967.088L1575.63,949.602L1550.16,949.841" style="fill:none;stroke:white;stroke-width:4.17px;"/>
                </g>
                <g transform="matrix(1,0,0,1,0,-44.2992)">
                    <path d="M1685.84,1101.9L1685.84,1035.1L1672.24,1011.39L1596.33,1011.41L1576.68,1038.31L1541.86,1039.38L1525.61,1020.75" style="fill:none;stroke:white;stroke-width:4.17px;"/>
                </g>
                <g transform="matrix(1,0,0,1,0,-44.2992)">
                    <path d="M1658.57,1023.55L1602.26,1023.44L1580.98,1056.65L1536.18,1056.65L1525.61,1045.06L1501.02,1044.17" style="fill:none;stroke:white;stroke-width:4.17px;"/>
                </g>
                <g transform="matrix(0.82094,0,0,0.766163,265.283,176.756)">
                    <ellipse cx="1485.4" cy="937.563" rx="7.386" ry="7.596" style="fill:white;stroke:white;stroke-width:5.25px;"/>
                </g>
                <g transform="matrix(0.82094,0,0,0.766163,166.411,222.228)">
                    <ellipse cx="1485.4" cy="937.563" rx="7.386" ry="7.596" style="fill:white;stroke:white;stroke-width:5.25px;"/>
                </g>
                <g transform="matrix(0.82094,0,0,0.766163,265.283,176.756)">
                    <ellipse cx="1485.4" cy="937.563" rx="7.386" ry="7.596" style="fill:white;stroke:white;stroke-width:5.25px;"/>
                </g>
                <g transform="matrix(0.82094,0,0,0.766163,186.969,222.228)">
                    <ellipse cx="1485.4" cy="937.563" rx="7.386" ry="7.596" style="fill:white;stroke:white;stroke-width:5.25px;"/>
                </g>
                <g transform="matrix(0.82094,0,0,0.766163,233.439,193.458)">
                    <ellipse cx="1485.4" cy="937.563" rx="7.386" ry="7.596" style="fill:white;stroke:white;stroke-width:5.25px;"/>
                </g>
                <g transform="matrix(0.82094,0,0,0.766163,167.12,263.654)">
                    <ellipse cx="1485.4" cy="937.563" rx="7.386" ry="7.596" style="fill:white;stroke:white;stroke-width:5.25px;"/>
                </g>
                <g transform="matrix(0.82094,0,0,0.766163,187.092,263.94)">
                    <ellipse cx="1485.4" cy="937.563" rx="7.386" ry="7.596" style="fill:white;stroke:white;stroke-width:5.25px;"/>
                </g>
                <g transform="matrix(0.82094,0,0,0.766163,151.879,277.932)">
                    <ellipse cx="1485.4" cy="937.563" rx="7.386" ry="7.596" style="fill:white;stroke:white;stroke-width:5.25px;"/>
                </g>
                <g transform="matrix(0.82094,0,0,0.766163,146.108,320.099)">
                    <ellipse cx="1485.4" cy="937.563" rx="7.386" ry="7.596" style="fill:white;stroke:white;stroke-width:5.25px;"/>
                </g>
                <g transform="matrix(0.82094,0,0,0.766163,245.094,307.114)">
                    <ellipse cx="1485.4" cy="937.563" rx="7.386" ry="7.596" style="fill:white;stroke:white;stroke-width:5.25px;"/>
                </g>
                <g transform="matrix(0.82094,0,0,0.766163,244.581,237.642)">
                    <ellipse cx="1485.4" cy="937.563" rx="7.386" ry="7.596" style="fill:white;stroke:white;stroke-width:5.25px;"/>
                </g>
                <g transform="matrix(0.82094,0,0,0.766163,225.289,237.151)">
                    <ellipse cx="1485.4" cy="937.563" rx="7.386" ry="7.596" style="fill:white;stroke:white;stroke-width:5.25px;"/>
                </g>
                <g transform="matrix(0.82094,0,0,0.766163,295.215,175.406)">
                    <ellipse cx="1485.4" cy="937.563" rx="7.386" ry="7.596" style="fill:white;stroke:white;stroke-width:5.25px;"/>
                </g>
                <g transform="matrix(0.82094,0,0,0.766163,295.557,216.686)">
                    <ellipse cx="1485.4" cy="937.563" rx="7.386" ry="7.596" style="fill:white;stroke:white;stroke-width:5.25px;"/>
                </g>
                <g transform="matrix(0.82094,0,0,0.766163,311.793,196.148)">
                    <ellipse cx="1485.4" cy="937.563" rx="7.386" ry="7.596" style="fill:white;stroke:white;stroke-width:5.25px;"/>
                </g>
                <g transform="matrix(0.82094,0,0,0.766163,311.688,237.337)">
                    <ellipse cx="1485.4" cy="937.563" rx="7.386" ry="7.596" style="fill:white;stroke:white;stroke-width:5.25px;"/>
                </g>
                <g transform="matrix(0.82094,0,0,0.766163,329.619,206.176)">
                    <ellipse cx="1485.4" cy="937.563" rx="7.386" ry="7.596" style="fill:white;stroke:white;stroke-width:5.25px;"/>
                </g>
                <g transform="matrix(0.82094,0,0,0.766163,330.356,258.647)">
                    <ellipse cx="1485.4" cy="937.563" rx="7.386" ry="7.596" style="fill:white;stroke:white;stroke-width:5.25px;"/>
                </g>
                <g transform="matrix(0.82094,0,0,0.766163,306.168,257.578)">
                    <ellipse cx="1485.4" cy="937.563" rx="7.386" ry="7.596" style="fill:white;stroke:white;stroke-width:5.25px;"/>
                </g>
                <g transform="matrix(0.82094,0,0,0.766163,345.65,234.578)">
                    <ellipse cx="1485.4" cy="937.563" rx="7.386" ry="7.596" style="fill:white;stroke:white;stroke-width:5.25px;"/>
                </g>
                <g transform="matrix(0.82094,0,0,0.766163,331.097,186.711)">
                    <ellipse cx="1485.4" cy="937.563" rx="7.386" ry="7.596" style="fill:white;stroke:white;stroke-width:5.25px;"/>
                </g>
                <g transform="matrix(0.82094,0,0,0.766163,393.963,183.027)">
                    <ellipse cx="1485.4" cy="937.563" rx="7.386" ry="7.596" style="fill:white;stroke:white;stroke-width:5.25px;"/>
                </g>
                <g transform="matrix(0.82094,0,0,0.766163,426.181,183.385)">
                    <ellipse cx="1485.4" cy="937.563" rx="7.386" ry="7.596" style="fill:white;stroke:white;stroke-width:5.25px;"/>
                </g>
                <g transform="matrix(0.82094,0,0,0.766163,426.313,219.255)">
                    <ellipse cx="1485.4" cy="937.563" rx="7.386" ry="7.596" style="fill:white;stroke:white;stroke-width:5.25px;"/>
                </g>
                <g transform="matrix(0.82094,0,0,0.766163,394.022,219.108)">
                    <ellipse cx="1485.4" cy="937.563" rx="7.386" ry="7.596" style="fill:white;stroke:white;stroke-width:5.25px;"/>
                </g>
                <g transform="matrix(0.82094,0,0,0.766163,280.899,295.758)">
                    <ellipse cx="1485.4" cy="937.563" rx="7.386" ry="7.596" style="fill:white;stroke:white;stroke-width:5.25px;"/>
                </g>
                <g transform="matrix(0.82094,0,0,0.766163,265.749,321.843)">
                    <ellipse cx="1485.4" cy="937.563" rx="7.386" ry="7.596" style="fill:white;stroke:white;stroke-width:5.25px;"/>
                </g>
                <g transform="matrix(0.82094,0,0,0.766163,310.531,319.707)">
                    <ellipse cx="1485.4" cy="937.563" rx="7.386" ry="7.596" style="fill:white;stroke:white;stroke-width:5.25px;"/>
                </g>
                <g transform="matrix(0.82094,0,0,0.766163,352.493,319.931)">
                    <ellipse cx="1485.4" cy="937.563" rx="7.386" ry="7.596" style="fill:white;stroke:white;stroke-width:5.25px;"/>
                </g>
                <g transform="matrix(1,0,0,1,0,-44.2992)">
                    <path d="M1385.84,984.853L1386.55,1026.28" style="fill:none;stroke:white;stroke-width:4.17px;"/>
                </g>
                <g transform="matrix(1,0,0,1,0,-44.2992)">
                    <path d="M1406.35,984.853L1406.26,1026.28" style="fill:none;stroke:white;stroke-width:4.17px;"/>
                </g>
                <g transform="matrix(1,0,0,1,0,-44.2992)">
                    <path d="M1463.85,1000.6L1464.01,1071.17" style="fill:none;stroke:white;stroke-width:4.17px;"/>
                </g>
                <g transform="matrix(1,0,0,1,0,-44.2992)">
                    <path d="M1514.57,936.73L1515.38,978.048" style="fill:none;stroke:white;stroke-width:4.17px;"/>
                </g>
                <g transform="matrix(1,0,0,1,0,-44.2992)">
                    <path d="M1548.99,970.381L1549.78,1021.27" style="fill:none;stroke:white;stroke-width:4.17px;"/>
                </g>
                <g transform="matrix(1,0,0,1,0,-44.2992)">
                    <path d="M1530.95,957.389L1531.22,1000.6" style="fill:none;stroke:white;stroke-width:4.17px;"/>
                </g>
                <g transform="matrix(1,0,0,1,0,-44.2992)">
                    <path d="M1531.22,1082.27L1572.15,1082.07" style="fill:none;stroke:white;stroke-width:4.17px;"/>
                </g>
                <g transform="matrix(1,0,0,1,0,-44.2992)">
                    <path d="M1360.57,920.126C1357.65,920.123 1354.84,921.285 1352.77,923.355C1350.7,925.425 1349.54,928.234 1349.54,931.161C1349.59,965.54 1349.75,1070.35 1349.8,1104.21C1349.81,1107.02 1350.94,1109.72 1352.94,1111.7C1354.95,1113.68 1357.67,1114.77 1360.48,1114.73C1380.53,1114.46 1421.83,1113.9 1421.83,1113.9C1421.83,1113.9 1421.28,1136.12 1445.74,1137.07C1473.47,1136.15 1472.21,1103.87 1465.4,1103.75C1458.58,1103.62 1711.85,1103.56 1711.85,1103.56C1711.85,1103.56 1700.29,1139.88 1741.66,1144.33C1780.44,1141.83 1768.91,1104.76 1771.94,1103.91C1779.71,1103.66 1806.58,1103.65 1821.85,1103.66C1824.71,1103.65 1827.45,1102.51 1829.47,1100.47C1831.48,1098.43 1832.6,1095.67 1832.57,1092.81C1832.45,1081.85 1832.28,1065.1 1832.17,1054.69C1832.1,1048.58 1830.13,1042.65 1826.53,1037.71C1817.17,1024.91 1798.08,998.771 1785.97,982.201C1779.13,972.843 1768.27,967.275 1756.68,967.192C1727.02,966.977 1671.99,966.58 1671.99,966.58C1671.99,966.58 1670.65,941.006 1669.97,927.94C1669.75,923.737 1666.28,920.441 1662.08,920.437C1619.76,920.393 1411.12,920.178 1360.57,920.126Z" style="fill:none;stroke:white;stroke-width:4.17px;"/>
                </g>
            </g>
            <g id="Logo" transform="matrix(0.577369,0,0,0.591896,632.648,250.057)">
                <path d="M64.69,1101.99L800.442,1102.12L1061.79,1359.62L1216.09,1359.37L1215.16,1315.78L1078.38,1315.05L822.565,1053.68L293.082,1049.56C744.719,-16.091 2227.33,-35.797 2702.57,1037.46C2762.03,1177.37 2792.5,1323.47 2800.39,1477.42L2993.39,1477.51C2951.98,655.277 2296.22,51.01 1497,45.5C752.12,49.203 250.541,528.385 64.69,1101.99Z" style="fill:white;stroke:black;stroke-width:1.75px;"/>
                <g transform="matrix(0.999798,0,0,1.06526,0,-102.472)">
                    <rect x="0" y="1524.55" width="2994" height="45.624" style="fill:white;stroke:black;stroke-width:1.69px;"/>
                </g>
                <path d="M450.56,1894.61L41.879,1894.42C159.142,2431.29 684.249,3043.19 1497,3040.5C2469.78,3037.28 2987.34,2210.74 2993.39,1608.61L2800.46,1608.61C2733.33,2405.6 2108.6,2850.7 1497,2848.01C954.383,2845.64 444.996,2508.07 253.743,1936.37L491.044,1936.8L450.56,1894.61Z" style="fill:white;stroke:black;stroke-width:1.75px;"/>
                <path d="M682.853,1020.81L992.311,711.885L1619.67,709.05L1619.92,754.893L1011.24,754.915L744.179,1021.05L682.853,1020.81Z" style="fill:white;stroke:black;stroke-width:1.75px;"/>
                <path d="M563.487,1138.51L626.755,1138.75L317.025,1446.13L0,1445.73L0,1402.15L298.638,1402L563.487,1138.51Z" style="fill:white;stroke:black;stroke-width:1.75px;"/>
                <path d="M0,1689.93L0,1646.36L318.564,1646.5L1007.2,2329.2L2164.26,2331.34L2165.34,2373.69L988.152,2375.03L300.105,1690.48L0,1689.93Z" style="fill:white;stroke:black;stroke-width:1.75px;"/>
                <path d="M619.645,1892.69L666.437,1939.44L1109.28,1936.37L1273.1,1772.54L1895.71,1777.36L1895.56,1729.99L1256.04,1731.51L1091.48,1895.05L619.645,1892.69Z" style="fill:white;stroke:black;stroke-width:1.75px;"/>
                <g transform="matrix(1,0,0,1,0,-3)">
                    <ellipse cx="1681.35" cy="737.496" rx="150.156" ry="146.789" style="fill:white;"/>
                </g>
                <g transform="matrix(1,0,0,1,301.312,1015.8)">
                    <ellipse cx="1681.35" cy="737.496" rx="150.156" ry="146.789" style="fill:white;"/>
                </g>
                <g transform="matrix(1,0,0,1,542.663,1615.07)">
                    <ellipse cx="1681.35" cy="737.496" rx="150.156" ry="146.789" style="fill:white;"/>
                </g>
            </g>
            <g id="FAHR" transform="matrix(1,0,0,1.04236,0,1.87631)">
                <g transform="matrix(1,0,0,1,0,-44.2992)">
                    <path d="M751.572,2392L752.043,2231.74C752.043,2231.74 759.596,2191.41 800.316,2190.49C838.496,2189.63 1096.14,2190.49 1096.14,2190.49L1095.51,2228.27L809.387,2228.69C809.387,2228.69 795.513,2227.31 795.518,2241.68C795.524,2256.77 795.456,2272.91 795.456,2272.91L1096.06,2272.97L1095.65,2310.16L795.94,2310.59L795.337,2392.15L751.572,2392Z" style="fill:white;"/>
                </g>
                <g transform="matrix(1,0,0,1,0,-44.2992)">
                    <path d="M1133.77,2391L1133.86,2235.8C1133.86,2235.8 1142.24,2191.54 1183.88,2190.82C1225.52,2190.09 1438.73,2190.82 1438.73,2190.82C1438.73,2190.82 1468.14,2201.21 1476.7,2235.44C1478.75,2243.63 1478.09,2289.6 1478.01,2305.54C1477.76,2354.07 1477.57,2391 1477.57,2391L1434.4,2391L1434.18,2310.39L1171.69,2310.61L1171.58,2391L1133.77,2391ZM1171.79,2272.51L1434.11,2272.42C1434.11,2272.42 1433.98,2260.54 1433.83,2243.58C1433.7,2229 1420.42,2228.61 1420.42,2228.61C1420.42,2228.61 1221.08,2228.07 1196.26,2227.95C1171.45,2227.84 1172.14,2247.87 1172.14,2247.87L1171.79,2272.51Z" style="fill:white;stroke:white;stroke-width:1px;"/>
                </g>
                <g transform="matrix(1,0,0,1,0,-44.2992)">
                    <path d="M1515.74,2190.49L1515.84,2391L1553.31,2391L1553.31,2309.6L1822.56,2310.24L1822.52,2391L1859.41,2391L1859.87,2190.49L1822.98,2190.49L1822.04,2272.56L1553.21,2271.99L1553.86,2190.49L1515.74,2190.49Z" style="fill:white;stroke:white;stroke-width:1px;"/>
                </g>
                <g transform="matrix(1,0,0,1,0,-44.2992)">
                    <path d="M1897.53,2190.49C1897.53,2190.49 2152.64,2185.29 2197,2190.49C2241.37,2195.7 2241.56,2231.74 2241.56,2231.74C2241.56,2231.74 2242.71,2234.6 2241.55,2257.26C2240.39,2279.92 2210.77,2307.81 2210.77,2307.81C2221.48,2312.42 2232.56,2320.12 2238.28,2334.53L2241.14,2391L2196.02,2391C2196.02,2391 2197.47,2372.47 2192.67,2346.22C2187.51,2318 2146.95,2309.47 2146.95,2309.47L1935.79,2309.83L1934.72,2391L1898.35,2391L1897.53,2190.49ZM1935.05,2228.48L1934.93,2272.55L2190.01,2271.38C2190.01,2271.38 2211.96,2249.41 2191.29,2228.87L1935.05,2228.48Z" style="fill:white;stroke:white;stroke-width:1px;"/>
                </g>
            </g>
            <g transform="matrix(2.47083,0,0,2.90502,-1202.24,-4804.15)">
                <g transform="matrix(50,0,0,50,1395.66,2574.88)">
                </g>
                <text x="787.212px" y="2574.88px" style="font-family:'ArialMT', 'Arial', sans-serif;font-size:50px;fill:white;">ELECTRONICS SYSTEMS</text>
            </g>
            <g transform="matrix(1,0,0,1.04236,0,-44.2992)">
                <path d="M2004.35,1078.98C2004.35,1059.98 2019.59,1043.42 2042.03,1043.71C2064.19,1043.99 2080.3,1059.04 2080.3,1078.04C2080.3,1089.67 2077.23,1095.84 2067.03,1108.64L2042.42,1144.33L2017.35,1108.83C2009.03,1097.19 2004.35,1090.62 2004.35,1078.98ZM2042.2,1068.07C2033.08,1067.96 2025.9,1074.36 2025.9,1083.67C2025.9,1092.97 2033.3,1099.65 2042.42,1099.65C2051.54,1099.65 2058.02,1092.33 2057.33,1083.05C2056.66,1074.03 2050.45,1068.17 2042.2,1068.07Z" style="fill:white;"/>
            </g>
        </g>
    </g>
</svg>
